# xmcd CD database file
#
# Track frame offsets:
#	150
#	23985
#	60974
#	86957
#	113885
#	139223
#	165353
#	183281
#	210933
#
# Disc length: 3226 seconds
#
# Revision: 0
# Processed by: cddbd v1.5.2PL0 Copyright (c) Steve Scherf et al.
# Submitted via: CDex 1.70beta3
#
DISCID=6f0c9809
DTITLE=Jeremy Pelt - November
DYEAR=2008
DGENRE=Jazz
TTITLE0=Mata
TTITLE1=Avatar
TTITLE2=Clairvoyant
TTITLE3=Dreamcatcher
TTITLE4=Phoenix
TTITLE5=Rosalie
TTITLE6=Monte Cristo
TTITLE7=Nephthys
TTITLE8=466-64 (Freedom Fighters)
EXTD=YEAR: 2008
EXTT0=
EXTT1=
EXTT2=
EXTT3=
EXTT4=
EXTT5=
EXTT6=
EXTT7=
EXTT8=
PLAYORDER=
